# This file uses centimeters as units for non-parametric coordinates.

mtllib Stairs_1x1.mtl
g default
v -0.000000 0.000000 1.000000
v 1.000000 0.000000 1.000000
v -0.000000 1.000000 -0.000000
v 1.000000 1.000000 -0.000000
v -0.000000 0.000000 -0.000000
v 1.000000 0.000000 -0.000000
v 1.000000 0.000000 0.750000
v -0.000000 0.000000 0.750000
v 1.000000 0.000000 0.500000
v -0.000000 0.000000 0.500000
v -0.000000 1.000000 0.250000
v 1.000000 1.000000 0.250000
v 1.000000 0.000000 0.250000
v -0.000000 0.000000 0.250000
v -0.000000 0.250000 1.000000
v 1.000000 0.250000 1.000000
v 1.000000 0.250000 0.750000
v -0.000000 0.250000 0.750000
v 1.000000 0.500000 0.750000
v 1.000000 0.500000 0.500000
v -0.000000 0.500000 0.500000
v -0.000000 0.500000 0.750000
v 1.000000 0.750000 0.500000
v 1.000000 0.750000 0.250000
v -0.000000 0.750000 0.250000
v -0.000000 0.750000 0.500000
vt 0.249990 0.999984
vt 0.250000 1.000000
vt 0.001178 0.999970
vt 0.000000 0.999974
vt 0.000150 0.000000
vt 0.999901 0.000000
vt 0.250031 0.000026
vt 0.250448 0.001466
vt 0.500054 0.001382
vt 0.749632 0.001298
vt 0.999850 1.000000
vt 0.999504 0.000057
vt 0.749749 0.000047
vt 0.500021 0.000036
vt 0.500988 1.000000
vt 0.500000 0.000000
vt 0.999721 0.250820
vt 0.749998 1.000000
vt 0.500063 0.000017
vt 0.500000 0.999985
vt 0.999012 1.000000
vt 0.249993 0.000000
vt 0.250000 0.999983
vt 0.000096 1.000000
vt 0.749012 1.000000
vt 0.750000 0.000000
vt 0.250000 0.749995
vt 0.499990 0.750005
vt 0.500305 0.750198
vt 0.250699 0.750281
vt 0.249012 0.000000
vt 0.000000 1.000000
vt 0.000000 0.000099
vt 1.000000 0.000150
vt 0.000843 0.001549
vt 0.500221 0.500592
vt 0.500000 0.500015
vt 0.749990 0.500026
vt 0.749826 0.500509
vt 0.749615 0.250904
vt 0.749529 0.250036
vt 0.999507 0.250047
vt 0.750040 0.000000
vt 0.250783 0.999887
vt 0.000113 0.249963
vt 0.000075 0.499926
vt 0.999962 0.250113
vt 0.999925 0.500075
vt 0.000099 1.000000
vt 0.000000 0.000000
vt 0.000038 0.749888
vt 0.999887 0.750038
vt 0.999997 1.000000
vt 0.000000 0.999850
vt 1.000037 0.000010
vt 0.999749 0.001215
vt 1.000000 0.999901
vt 0.000042 0.000016
vt 0.500000 1.000000
vt 0.500988 0.000000
vt 0.749012 0.000000
vt 0.750000 1.000000
vt 0.000000 0.000024
vt 0.999012 0.000000
vt 0.250090 0.999976
vt 0.250068 0.000000
vt 0.500061 0.000000
vt 0.499995 1.000000
vt 0.750000 0.999990
vt 0.750056 0.000015
vt 0.250000 0.000000
vt 0.249012 1.000000
vt 0.749746 0.250036
vt 0.749660 0.250904
vt 0.749643 0.001298
vt 0.749525 0.000047
vn 0.000000 1.000000 0.000000
vn 0.000000 1.000000 0.000000
vn 0.000000 1.000000 0.000000
vn 0.000000 1.000000 0.000000
vn 0.000000 0.000000 -1.000000
vn 0.000000 0.000000 -1.000000
vn 0.000000 0.000000 -1.000000
vn 0.000000 0.000000 -1.000000
vn 0.000000 -1.000000 0.000000
vn 0.000000 -1.000000 0.000000
vn 0.000000 -1.000000 0.000000
vn 0.000000 -1.000000 0.000000
vn 0.000000 -1.000000 0.000000
vn 0.000000 -1.000000 0.000000
vn 0.000000 -1.000000 0.000000
vn 0.000000 -1.000000 0.000000
vn 0.000000 -1.000000 0.000000
vn 0.000000 -1.000000 0.000000
vn 1.000000 0.000000 0.000000
vn 1.000000 0.000000 0.000000
vn 1.000000 0.000000 0.000000
vn -1.000000 0.000000 0.000000
vn -1.000000 0.000000 0.000000
vn -1.000000 0.000000 0.000000
vn -1.000000 0.000000 0.000000
vn 0.000000 0.000000 1.000000
vn 0.000000 0.000000 1.000000
vn 0.000000 0.000000 1.000000
vn 0.000000 0.000000 1.000000
vn 1.000000 0.000000 0.000000
vn 1.000000 0.000000 0.000000
vn 1.000000 0.000000 0.000000
vn -1.000000 0.000000 0.000000
vn -1.000000 0.000000 0.000000
vn -1.000000 0.000000 0.000000
vn 1.000000 0.000000 0.000000
vn 1.000000 0.000000 0.000000
vn -1.000000 0.000000 0.000000
vn -1.000000 0.000000 0.000000
vn -1.000000 0.000000 0.000000
vn 1.000000 0.000000 0.000000
vn -1.000000 0.000000 0.000000
vn -1.000000 0.000000 0.000000
vn 0.000000 1.000000 0.000000
vn 0.000000 1.000000 0.000000
vn 0.000000 1.000000 0.000000
vn 0.000000 1.000000 0.000000
vn 0.000000 0.000000 1.000000
vn 0.000000 0.000000 1.000000
vn 0.000000 0.000000 1.000000
vn 0.000000 0.000000 1.000000
vn -0.000000 1.000000 0.000000
vn -0.000000 1.000000 0.000000
vn -0.000000 1.000000 0.000000
vn -0.000000 1.000000 0.000000
vn 0.000000 0.000000 1.000000
vn 0.000000 0.000000 1.000000
vn 0.000000 0.000000 1.000000
vn 0.000000 0.000000 1.000000
vn 0.000000 1.000000 0.000000
vn 0.000000 1.000000 0.000000
vn 0.000000 1.000000 0.000000
vn 0.000000 1.000000 0.000000
vn 0.000000 0.000000 1.000000
vn 0.000000 0.000000 1.000000
vn 0.000000 0.000000 1.000000
vn 0.000000 0.000000 1.000000
vn 1.000000 0.000000 0.000000
vn 1.000000 0.000000 0.000000
vn 1.000000 0.000000 0.000000
vn 1.000000 0.000000 0.000000
vn -1.000000 0.000000 0.000000
s off
g p_Stairs_1x1
usemtl initialShadingGroup
f 11/31/1 12/72/2 4/32/3 3/50/4
f 5/57/5 3/49/6 4/33/7 6/6/8
f 14/45/9 5/5/10 6/34/11 13/47/12 9/48/13 7/52/14 2/11/15 1/54/16 8/51/17 10/46/18
s 1
f 4/3/19 13/8/20 6/35/21
s 2
f 25/27/22 11/1/23 3/4/24 14/7/25
s off
f 1/53/26 2/55/27 16/43/28 15/69/29
s 1
f 2/56/30 7/75/31 17/40/32
s 2
f 15/42/33 18/41/34 1/12/35
s 1
f 9/9/36 20/36/37 7/10/31
s 2
f 18/73/34 22/38/38 21/37/39 8/13/40
s 1
f 13/8/20 24/30/41 9/9/36
s 2
f 21/37/39 26/28/42 25/27/22 10/14/43
s off
f 16/70/44 17/67/45 18/20/46 15/18/47
f 22/23/48 18/68/49 17/19/50 19/66/51
f 19/22/52 20/63/53 21/24/54 22/65/55
f 26/26/56 21/64/57 20/21/58 23/62/59
f 23/25/60 24/59/61 25/16/62 26/61/63
f 24/15/64 12/2/65 11/71/66 25/60/67
s 2
f 1/12/35 18/41/34 8/76/40
s 1
f 2/56/30 17/40/32 16/17/68
f 7/10/31 20/36/37 19/39/69 17/74/32
f 9/9/36 24/30/41 23/29/70 20/36/37
f 4/3/19 12/44/71 24/30/41 13/8/20
s 2
f 8/13/40 21/37/39 10/14/43
f 10/14/43 25/27/22 14/7/25
f 14/7/25 3/4/24 5/58/72
