# This file uses centimeters as units for non-parametric coordinates.

mtllib Ramp_2x1.mtl
g default
v -0.000000 0.000000 2.000000
v 1.000000 0.000000 2.000000
v -0.000000 1.000000 0.000000
v 1.000000 1.000000 0.000000
v -0.000000 0.000000 0.000000
v 1.000000 0.000000 0.000000
v -0.000000 0.000000 1.000000
v 1.000000 0.000000 1.000000
v -0.000000 0.500000 1.000000
v 1.000000 0.500000 1.000000
vt 0.999944 0.000000
vt 0.052781 0.000053
vt 0.999994 0.000013
vt 0.000000 0.000000
vt 0.947225 0.999901
vt 0.999809 0.000000
vt 1.000000 1.000000
vt 0.000178 0.000000
vt 0.000000 0.999822
vt 0.999906 0.999812
vt 0.000094 1.000000
vt 0.999892 0.999784
vt 0.000108 1.000000
vt 1.000000 0.999809
vt 0.000000 1.000000
vt 1.000000 0.000000
vt 0.052886 1.000000
vt 0.947160 0.000000
vt 0.999994 0.999975
vt 1.000000 0.000178
vt 0.000191 1.000000
vt 0.999718 0.000000
vt 0.500006 1.000000
vt 0.052839 1.000000
vt 0.947219 0.999947
vt 0.500006 0.999987
vt 0.947114 0.000000
vt 0.499812 0.000094
vt 0.999822 1.000000
vt 0.999994 0.999987
vt 0.499784 0.000108
vt 0.052775 0.000099
vt 0.000000 0.000191
vt 0.999676 0.000000
vn 0.000000 0.894427 0.447214
vn 0.000000 0.894427 0.447214
vn 0.000000 0.894427 0.447214
vn 0.000000 0.894427 0.447214
vn 0.000000 0.000000 -1.000000
vn 0.000000 0.000000 -1.000000
vn 0.000000 0.000000 -1.000000
vn 0.000000 0.000000 -1.000000
vn 0.000000 -1.000000 0.000000
vn 0.000000 -1.000000 0.000000
vn 0.000000 -1.000000 0.000000
vn 0.000000 -1.000000 0.000000
vn 1.000000 0.000000 0.000000
vn 1.000000 0.000000 0.000000
vn 1.000000 0.000000 0.000000
vn 1.000000 0.000000 0.000000
vn -1.000000 0.000000 0.000000
vn -1.000000 0.000000 0.000000
vn -1.000000 0.000000 0.000000
vn -1.000000 0.000000 0.000000
vn 0.000000 -1.000000 0.000000
vn 0.000000 -1.000000 0.000000
vn -1.000000 0.000000 0.000000
vn 0.000000 0.894427 0.447214
vn 0.000000 0.894427 0.447214
vn 1.000000 0.000000 0.000000
s 1
g p_Ramp_2x1
usemtl initialShadingGroup
f 9/32/1 10/27/2 4/5/3 3/17/4
s off
f 3/4/5 4/16/6 6/7/7 5/15/8
s 2
f 7/20/9 8/29/10 2/9/11 1/8/12
s 3
f 10/28/13 8/22/14 6/10/15 4/11/16
s 4
f 5/12/17 7/34/18 9/31/19 3/13/20
s 2
f 5/6/21 6/14/22 8/21/10 7/33/9
s 4
f 9/23/19 7/19/18 1/1/23
s 1
f 1/2/24 2/18/25 10/25/2 9/24/1
s 3
f 2/3/26 8/30/14 10/26/13
