# This file uses centimeters as units for non-parametric coordinates.

mtllib Floor_1x1.mtl
g default
v -0.000000 -0.150000 1.000000
v 1.000000 -0.150000 1.000000
v -0.000000 0.000000 1.000000
v 1.000000 0.000000 1.000000
v -0.000000 0.000000 0.000000
v 1.000000 0.000000 0.000000
v -0.000000 -0.150000 0.000000
v 1.000000 -0.150000 0.000000
vt 0.999979 0.000034
vt 0.999860 0.000000
vt 0.999986 0.000082
vt 0.000000 0.000015
vt 0.000012 0.000093
vt 0.999983 0.150111
vt 0.000014 0.150089
vt 0.000140 1.000000
vt 0.000017 0.000059
vt 0.000000 0.000140
vt 1.000000 0.000175
vt 0.999988 0.150078
vt 0.999992 0.000115
vt 0.000005 0.000141
vt 0.000026 0.000000
vt 1.000000 0.999860
vt 1.000000 0.999985
vt 0.000009 0.150055
vt 0.000015 1.000000
vt 0.000021 0.150137
vt 0.999974 0.150171
vt 0.999985 0.000000
vt 0.000000 0.149996
vt 0.999995 0.150030
vn 0.000000 0.000000 1.000000
vn 0.000000 0.000000 1.000000
vn 0.000000 0.000000 1.000000
vn 0.000000 0.000000 1.000000
vn 0.000000 1.000000 0.000000
vn 0.000000 1.000000 0.000000
vn 0.000000 1.000000 0.000000
vn 0.000000 1.000000 0.000000
vn 0.000000 0.000000 -1.000000
vn 0.000000 0.000000 -1.000000
vn 0.000000 0.000000 -1.000000
vn 0.000000 0.000000 -1.000000
vn 0.000000 -1.000000 0.000000
vn 0.000000 -1.000000 0.000000
vn 0.000000 -1.000000 0.000000
vn 0.000000 -1.000000 0.000000
vn 1.000000 0.000000 0.000000
vn 1.000000 0.000000 0.000000
vn 1.000000 0.000000 0.000000
vn 1.000000 0.000000 0.000000
vn -1.000000 0.000000 0.000000
vn -1.000000 0.000000 0.000000
vn -1.000000 0.000000 0.000000
vn -1.000000 0.000000 0.000000
s off
g p_Floor_1x1
usemtl initialShadingGroup
f 1/15/1 2/11/2 4/21/3 3/23/4
f 3/4/5 4/22/6 6/17/7 5/19/8
f 5/6/9 6/18/10 8/9/11 7/13/12
f 7/8/13 8/10/14 2/2/15 1/16/16
f 2/12/17 8/7/18 6/5/19 4/3/20
f 7/14/21 1/1/22 3/24/23 5/20/24
