# This file uses centimeters as units for non-parametric coordinates.

mtllib Wall_RoundedCorner_1x2.mtl
g default
v 0.000000 0.000000 0.050000
v 0.000000 2.000000 0.050000
v 0.000000 2.000000 -0.050000
v 0.000000 0.000000 -0.050000
v 0.000000 1.000000 0.050000
v 0.000000 1.000000 -0.050000
v 0.900000 2.000000 1.000000
v 0.900000 1.000000 1.000000
v 1.000000 1.000000 1.000000
v 1.000000 2.000000 1.000000
v 0.900000 0.000000 1.000000
v 1.000000 0.000000 1.000000
v 0.876061 2.000000 0.263261
v 1.000000 2.000000 0.591353
v 0.876061 1.000000 0.263261
v 1.000000 1.000000 0.591353
v 0.358647 2.000000 -0.050000
v 0.676061 2.000000 0.063261
v 0.676061 1.000000 0.063261
v 0.358647 1.000000 -0.050000
v 1.000000 0.000000 0.591353
v 0.876061 0.000000 0.263261
v 0.676061 0.000000 0.063261
v 0.358647 0.000000 -0.050000
v 0.600020 2.000000 0.149980
v 0.358647 2.000000 0.050000
v 0.600020 1.000000 0.149980
v 0.358647 1.000000 0.050000
v 0.900000 2.000000 0.591353
v 0.800020 2.000000 0.349980
v 0.800020 1.000000 0.349980
v 0.900000 1.000000 0.591353
v 0.358647 0.000000 0.050000
v 0.600020 0.000000 0.149980
v 0.800020 0.000000 0.349980
v 0.900000 0.000000 0.591353
vt 0.489474 0.063298
vt 0.048653 0.999744
vt 0.998717 0.000138
vt 0.998776 0.000316
vt 0.001224 0.999684
vt 0.951334 0.000219
vt 0.948776 0.509822
vt 0.997722 0.510454
vt 0.048667 0.999781
vt 0.985662 0.509907
vt 0.001283 0.999863
vt 0.490227 0.051201
vt 0.665143 0.000000
vt 0.665771 0.048946
vt 0.951043 0.334277
vt 0.999989 0.334909
vt 0.849930 0.079673
vt 0.690125 0.016936
vt 0.764130 0.999926
vt 0.562880 0.000156
vt 0.983094 0.309889
vt 0.920368 0.150078
vt 0.946559 0.178830
vt 0.400498 0.999810
vt 0.207114 0.000170
vt 0.821218 0.053442
vt 0.903632 0.215502
vt 0.745431 0.999895
vt 0.595539 0.000171
vt 0.784544 0.096366
vt 0.689493 0.065882
vt 0.807004 0.116345
vt 0.433145 0.999828
vt 0.283253 0.000129
vt 0.883693 0.193002
vt 0.934147 0.310517
vt 0.991948 0.999371
vt 0.000643 0.008030
vt 0.998671 1.000000
vt 0.764175 0.000147
vt 0.283195 0.999796
vt 0.000011 0.056977
vt 0.943001 1.000000
vt 0.048711 0.000098
vt 0.000762 0.057486
vt 0.942454 0.999286
vt 0.951275 0.999940
vt 0.745489 0.000192
vt 0.207068 0.999749
vt 0.991400 0.999918
vt 0.000133 0.008540
vt 0.001269 0.000179
vt 0.595482 0.999863
vt 0.433203 0.000150
vt 0.562835 0.999862
vt 0.400543 0.000162
vt 0.283209 0.999813
vt 0.433158 0.999833
vt 0.936716 0.510535
vt 0.595495 0.999855
vt 0.745445 0.999876
vt 0.433216 0.000144
vt 0.283266 0.000112
vt 0.048724 0.000060
vt 0.745502 0.000211
vt 0.595553 0.000179
vt 0.207127 0.999854
vt 0.400557 0.999846
vt 0.562894 0.999840
vt 0.764189 0.999831
vt 0.998731 0.999822
vt 0.400602 0.000127
vt 0.207173 0.000065
vt 0.562939 0.000178
vt 0.764234 0.000242
vt 0.490107 0.014352
vt 0.001328 0.000000
vt 0.489598 0.002254
vt 0.951347 0.000256
vt 0.951289 0.999903
vn 0.000000 0.000000 1.000000
vn 0.000000 0.000000 1.000000
vn 0.000000 0.000000 1.000000
vn 0.000000 0.000000 1.000000
vn -1.000000 0.000000 0.000000
vn -1.000000 0.000000 0.000000
vn -1.000000 0.000000 0.000000
vn -1.000000 0.000000 0.000000
vn 0.000000 0.000000 1.000000
vn 0.000000 0.000000 1.000000
vn -1.000000 0.000000 0.000000
vn -1.000000 0.000000 0.000000
vn 0.000000 -1.000000 0.000000
vn 0.000000 -1.000000 0.000000
vn 0.000000 -1.000000 0.000000
vn 0.000000 -1.000000 0.000000
vn 0.000000 1.000000 0.000000
vn 0.000000 1.000000 0.000000
vn 0.000000 1.000000 0.000000
vn 0.000000 1.000000 0.000000
vn 0.852407 -0.000000 -0.522878
vn 0.986143 0.000000 -0.165895
vn 0.986143 0.000000 -0.165895
vn 0.852407 0.000000 -0.522878
vn 0.986143 0.000000 -0.165895
vn 0.852407 0.000000 -0.522878
vn 0.165228 -0.000000 -0.986255
vn 0.517911 -0.000000 -0.855435
vn 0.517911 0.000000 -0.855435
vn 0.165228 0.000000 -0.986255
vn 0.517911 0.000000 -0.855435
vn 0.165228 0.000000 -0.986255
vn -0.562113 0.000000 0.827060
vn -0.164362 0.000000 0.986400
vn -0.164362 0.000000 0.986400
vn -0.562113 0.000000 0.827060
vn -0.164362 0.000000 0.986400
vn -0.562113 0.000000 0.827060
vn -0.988377 0.000000 0.152023
vn -0.827060 0.000000 0.562113
vn -0.827060 0.000000 0.562113
vn -0.988377 0.000000 0.152023
vn -0.827060 0.000000 0.562113
vn -0.988377 0.000000 0.152023
vn 0.000000 -0.000000 -1.000000
vn 0.000000 0.000000 -1.000000
vn 0.000000 0.000000 -1.000000
vn 0.000000 0.000000 1.000000
vn 0.000000 0.000000 1.000000
vn 0.000000 0.000000 1.000000
vn -1.000000 0.000000 0.000000
vn -1.000000 0.000000 0.000000
vn 1.000000 0.000000 0.000000
vn 1.000000 0.000000 0.000000
vn -1.000000 0.000000 0.000000
vn 1.000000 0.000000 0.000000
vn 0.000000 1.000000 0.000000
vn 0.000000 1.000000 0.000000
vn 0.000000 1.000000 0.000000
vn 0.000000 1.000000 0.000000
vn 0.000000 1.000000 0.000000
vn 0.000000 1.000000 0.000000
vn 0.000000 1.000000 0.000000
vn 0.000000 1.000000 0.000000
vn 0.000000 -1.000000 0.000000
vn 0.000000 -1.000000 0.000000
vn 0.000000 -1.000000 0.000000
vn 0.000000 -1.000000 0.000000
vn 0.000000 -1.000000 0.000000
vn 0.000000 -1.000000 0.000000
vn 0.000000 -1.000000 0.000000
vn 0.000000 -1.000000 0.000000
s 1
g p_Wall_RoundedCorner_1x2
usemtl initialShadingGroup
f 7/1/1 8/42/2 9/38/3 10/76/4
s 2
f 6/50/5 5/46/6 2/7/7 3/8/8
s 1
f 8/43/2 11/59/9 12/10/10 9/37/3
s 2
f 4/78/11 1/12/12 5/45/6 6/51/5
s 3
f 4/78/13 24/13/14 33/14/15 1/12/16
s 4
f 26/15/17 17/16/18 3/8/19 2/7/20
s 5
f 13/74/21 14/75/22 16/19/23 15/55/24
f 15/20/24 16/40/23 21/70/25 22/69/26
f 17/73/27 18/72/28 19/24/29 20/49/30
f 20/25/30 19/56/29 23/68/31 24/67/32
s 6
f 25/66/33 26/65/34 28/28/35 27/53/36
f 27/29/36 28/48/35 33/61/37 34/60/38
f 29/63/39 30/62/40 31/33/41 32/41/42
f 32/34/42 31/54/41 35/58/43 36/57/44
s 5
f 19/24/29 18/72/28 13/74/21 15/55/24
f 19/56/29 15/20/24 22/69/26 23/68/31
s 6
f 31/33/41 30/62/40 25/66/33 27/53/36
f 31/54/41 27/29/36 34/60/38 35/58/43
s 5
f 3/77/45 17/73/27 20/49/30 6/5/46
f 6/52/46 20/25/30 24/67/32 4/11/47
s 6
f 5/47/48 28/28/35 26/65/34 2/79/49
f 1/80/50 33/61/37 28/48/35 5/6/48
f 29/63/39 32/41/42 8/2/51 7/64/52
s 5
f 16/19/23 14/75/22 10/4/53 9/39/54
s 6
f 32/34/42 36/57/44 11/9/55 8/44/51
s 5
f 9/3/54 12/71/56 21/70/25 16/40/23
s 4
f 25/27/57 18/23/58 17/16/18 26/15/17
f 30/32/59 13/17/60 18/23/58 25/27/57
f 14/18/61 13/17/60 30/32/59 29/31/62
f 14/18/61 29/31/62 7/1/63 10/76/64
s 3
f 33/14/15 24/13/14 23/26/65 34/30/66
f 36/36/67 21/21/68 12/10/69 11/59/70
f 34/30/66 23/26/65 22/22/71 35/35/72
f 35/35/72 22/22/71 21/21/68 36/36/67
