# This file uses centimeters as units for non-parametric coordinates.

mtllib Door_1x2.mtl
g default
v 0.000000 0.000000 0.040000
v 1.000000 0.000000 0.040000
v 0.000000 2.000000 0.040000
v 1.000000 2.000000 0.040000
v 0.000000 2.000000 -0.040000
v 1.000000 2.000000 -0.040000
v 0.000000 0.000000 -0.040000
v 1.000000 0.000000 -0.040000
v 0.000000 1.000000 0.040000
v 1.000000 1.000000 0.040000
v 1.000000 1.000000 -0.040000
v 0.000000 1.000000 -0.040000
vt 0.000000 0.000083
vt 0.999917 0.000000
vt 1.000000 0.999917
vt 0.000083 1.000000
vt 0.999954 0.000037
vt 1.000037 0.999955
vt 0.900046 0.999963
vt 0.899963 0.000045
vt 1.000000 0.999917
vt 0.000083 1.000000
vt 0.000000 0.000083
vt 0.999917 0.000000
vt 0.999955 0.000037
vt 1.000037 0.999954
vt 0.900046 0.999962
vt 0.899963 0.000046
vt 0.999954 0.899963
vt 0.999962 0.999955
vt 0.000046 1.000037
vt 0.000038 0.900046
vt 0.999954 0.899963
vt 0.999962 0.999955
vt 0.000046 1.000037
vt 0.000038 0.900045
vt 0.000000 0.000083
vt 0.999917 0.000000
vt 1.000000 0.999917
vt 0.000083 1.000000
vt 0.999954 0.899963
vt 0.999963 0.999955
vt 0.000046 1.000037
vt 0.000037 0.900046
vt 0.000000 0.000083
vt 0.999917 0.000000
vt 1.000000 0.999917
vt 0.000083 1.000000
vt 0.999954 0.899963
vt 0.999962 0.999954
vt 0.000046 1.000037
vt 0.000038 0.900046
vn 0.000000 0.000000 1.000000
vn 0.000000 0.000000 1.000000
vn 0.000000 0.000000 1.000000
vn 0.000000 0.000000 1.000000
vn 0.000000 1.000000 0.000000
vn 0.000000 1.000000 0.000000
vn 0.000000 1.000000 0.000000
vn 0.000000 1.000000 0.000000
vn 0.000000 0.000000 -1.000000
vn 0.000000 0.000000 -1.000000
vn 0.000000 0.000000 -1.000000
vn 0.000000 0.000000 -1.000000
vn 0.000000 -1.000000 0.000000
vn 0.000000 -1.000000 0.000000
vn 0.000000 -1.000000 0.000000
vn 0.000000 -1.000000 0.000000
vn 1.000000 0.000000 0.000000
vn 1.000000 0.000000 0.000000
vn 1.000000 0.000000 0.000000
vn 1.000000 0.000000 0.000000
vn -1.000000 0.000000 0.000000
vn -1.000000 0.000000 0.000000
vn -1.000000 0.000000 0.000000
vn -1.000000 0.000000 0.000000
vn 0.000000 0.000000 1.000000
vn 0.000000 0.000000 1.000000
vn 0.000000 0.000000 1.000000
vn 0.000000 0.000000 1.000000
vn 1.000000 0.000000 0.000000
vn 1.000000 0.000000 0.000000
vn 1.000000 0.000000 0.000000
vn 1.000000 0.000000 0.000000
vn 0.000000 0.000000 -1.000000
vn 0.000000 0.000000 -1.000000
vn 0.000000 0.000000 -1.000000
vn 0.000000 0.000000 -1.000000
vn -1.000000 0.000000 0.000000
vn -1.000000 0.000000 0.000000
vn -1.000000 0.000000 0.000000
vn -1.000000 0.000000 0.000000
s off
g p_Door_1x2
usemtl initialShadingGroup
f 9/1/1 10/2/2 4/3/3 3/4/4
f 3/5/5 4/6/6 6/7/7 5/8/8
f 5/9/9 6/10/10 11/11/11 12/12/12
f 7/13/13 8/14/14 2/15/15 1/16/16
f 10/17/17 11/18/18 6/19/19 4/20/20
f 12/21/21 9/22/22 3/23/23 5/24/24
f 1/25/25 2/26/26 10/27/27 9/28/28
f 2/29/29 8/30/30 11/31/31 10/32/32
f 12/33/33 11/34/34 8/35/35 7/36/36
f 7/37/37 1/38/38 9/39/39 12/40/40
