# This file uses centimeters as units for non-parametric coordinates.

mtllib Wall_Dooe_2x2.mtl
g default
v 0.000000 0.000000 0.050000
v 2.000000 0.000000 0.050000
v 0.000000 2.000000 0.050000
v 2.000000 2.000000 0.050000
v 0.000000 2.000000 -0.050000
v 2.000000 2.000000 -0.050000
v 0.000000 0.000000 -0.050000
v 2.000000 0.000000 -0.050000
v 0.000000 1.000000 0.050000
v 2.000000 1.000000 0.050000
v 2.000000 1.000000 -0.050000
v 0.000000 1.000000 -0.050000
v 0.500000 0.000000 0.050000
v 0.500000 0.000000 -0.050000
v 0.500000 1.000000 -0.050000
v 0.500000 2.000000 -0.050000
v 0.500000 2.000000 0.050000
v 0.500000 1.000000 0.050000
v 1.500000 1.000000 -0.050000
v 1.500000 0.000000 -0.050000
v 1.500000 0.000000 0.050000
v 1.500000 1.000000 0.050000
v 1.500000 2.000000 0.050000
v 1.500000 2.000000 -0.050000
vt 0.999954 0.000043
vt 0.500033 0.899957
vt 1.000018 0.999932
vt 1.000037 0.999949
vt 1.000037 0.999949
vt 0.999986 0.999948
vt 0.999954 0.000043
vt 0.999979 0.999979
vt 0.499932 0.999975
vt 0.899963 0.000051
vt 0.500033 0.899957
vt 0.000080 0.999982
vt 0.999973 0.899989
vt 0.900046 0.999957
vt 1.000007 0.000062
vt 0.500014 0.999948
vt 0.999954 0.000043
vt 0.900046 0.999957
vt 0.500022 0.000069
vt 1.000037 0.999949
vt 0.900046 0.999957
vt 0.999947 0.999968
vt 0.999967 0.000042
vt 0.899963 0.000051
vt 0.499967 0.000042
vt 0.999954 0.000043
vt -0.000033 0.000075
vt 0.999935 0.000026
vt 0.499947 0.999968
vt 1.000037 0.999949
vt 1.000033 0.999925
vt 0.899963 0.000051
vt 0.500014 0.999948
vt 0.900046 0.999957
vt 0.999979 0.999979
vt 0.500007 0.000062
vt 0.999920 0.000019
vt 0.899963 0.000051
vt 0.499986 0.999948
vt 0.999973 0.899989
vt 0.900005 0.000094
vt 0.500054 0.000032
vt 1.000038 0.000188
vt 0.500020 0.900021
vt 0.000054 0.000032
vt 0.900005 1.000000
vt 1.000055 0.000053
vt 0.999967 1.000043
vt 0.499967 0.000075
vt 0.900064 0.999959
vt 0.999967 1.000043
vt 0.500033 0.999924
vt 0.000069 0.000024
vt 0.499919 0.000018
vt 1.000055 0.999947
vt 0.499982 0.000067
vt 0.500080 0.999981
vt 0.900064 0.000041
vt 0.500014 0.000051
vt 0.499994 0.999938
vt 0.999995 0.999906
vt 0.000014 0.000052
vt -0.000006 0.999938
vt 0.900057 0.000282
vt 0.999986 0.900052
vt 0.999935 0.000041
vt 0.500065 0.999974
vt 0.899945 0.000053
vt 0.999986 0.900052
vt 0.899945 0.999947
vt -0.000022 0.999931
vt 0.999936 0.999959
vt 0.500020 0.900021
vt 0.000033 0.999958
vt 0.500027 1.000011
vt 0.899962 0.999812
vt 0.500033 0.999958
vt 1.000038 0.999718
vt 0.500027 1.000011
vt 0.999995 0.000000
vn 1.000000 0.000000 0.000000
vn 1.000000 0.000000 0.000000
vn 1.000000 0.000000 0.000000
vn 1.000000 0.000000 0.000000
vn -1.000000 0.000000 0.000000
vn -1.000000 0.000000 0.000000
vn -1.000000 0.000000 0.000000
vn -1.000000 0.000000 0.000000
vn 1.000000 0.000000 0.000000
vn 1.000000 0.000000 0.000000
vn -1.000000 0.000000 0.000000
vn -1.000000 0.000000 0.000000
vn 0.000000 -1.000000 0.000000
vn 0.000000 -1.000000 0.000000
vn 0.000000 -1.000000 0.000000
vn 0.000000 -1.000000 0.000000
vn 0.000000 0.000000 -1.000000
vn 0.000000 0.000000 -1.000000
vn 0.000000 0.000000 -1.000000
vn 0.000000 0.000000 -1.000000
vn 0.000000 0.000000 -1.000000
vn 0.000000 0.000000 -1.000000
vn 0.000000 1.000000 0.000000
vn 0.000000 1.000000 0.000000
vn 0.000000 1.000000 0.000000
vn 0.000000 1.000000 0.000000
vn 0.000000 0.000000 1.000000
vn 0.000000 0.000000 1.000000
vn 0.000000 0.000000 1.000000
vn 0.000000 0.000000 1.000000
vn 0.000000 0.000000 1.000000
vn 0.000000 0.000000 1.000000
vn 0.000000 0.000000 -1.000000
vn 0.000000 0.000000 -1.000000
vn 0.000000 0.000000 -1.000000
vn 0.000000 0.000000 -1.000000
vn 0.000000 -1.000000 0.000000
vn 0.000000 -1.000000 0.000000
vn 0.000000 -1.000000 0.000000
vn 0.000000 -1.000000 0.000000
vn 0.000000 0.000000 1.000000
vn 0.000000 0.000000 1.000000
vn 0.000000 0.000000 1.000000
vn 0.000000 0.000000 1.000000
vn 0.000000 0.000000 1.000000
vn 0.000000 0.000000 1.000000
vn 0.000000 1.000000 0.000000
vn 0.000000 1.000000 0.000000
vn 0.000000 1.000000 0.000000
vn 0.000000 1.000000 0.000000
vn 0.000000 0.000000 -1.000000
vn 0.000000 0.000000 -1.000000
vn 1.000000 0.000000 0.000000
vn 1.000000 0.000000 0.000000
vn 1.000000 0.000000 0.000000
vn 1.000000 0.000000 0.000000
vn 1.000000 0.000000 0.000000
vn 1.000000 0.000000 0.000000
vn 1.000000 0.000000 0.000000
vn 1.000000 0.000000 0.000000
vn -1.000000 0.000000 0.000000
vn -1.000000 0.000000 0.000000
vn -1.000000 0.000000 0.000000
vn -1.000000 0.000000 0.000000
vn -1.000000 0.000000 0.000000
vn -1.000000 0.000000 0.000000
vn -1.000000 0.000000 0.000000
vn -1.000000 0.000000 0.000000
s 1
g p_Wall_Door_2x2
usemtl initialShadingGroup
f 10/32/1 11/26/2 6/5/3 4/34/4
s 2
f 12/24/5 9/17/6 3/4/7 5/14/8
s 1
f 2/38/9 8/7/10 11/20/2 10/18/1
s 2
f 7/10/11 1/1/12 9/30/6 12/21/5
s off
f 7/8/13 14/79/14 13/73/15 1/40/16
s 3
f 12/22/17 15/60/18 14/42/19 7/15/20
f 5/6/21 16/77/22 15/59/18 12/23/17
s off
f 3/35/23 17/75/24 16/44/25 5/13/26
s 4
f 9/29/27 18/63/28 17/45/29 3/36/30
f 1/39/31 13/74/32 18/62/28 9/25/27
s 5
f 20/71/33 19/53/34 11/19/35 8/9/36
s off
f 21/69/37 20/48/38 8/16/39 2/2/40
s 6
f 22/57/41 21/49/42 2/37/43 10/31/44
f 23/67/45 22/56/41 10/28/44 4/3/46
s off
f 24/65/47 23/51/48 4/33/49 6/11/50
s 5
f 19/54/34 24/52/51 6/12/52 11/27/35
s off
f 14/80/53 15/61/54 18/46/55 13/41/56
f 15/43/57 16/78/58 17/76/59 18/64/60
f 19/47/61 20/72/62 21/70/63 22/58/64
f 22/50/65 23/68/66 24/66/67 19/55/68
