# This file uses centimeters as units for non-parametric coordinates.

mtllib Pistol_Bullet_Case.mtl
g default
v 0.003024 -0.016154 -0.002197
v 0.001155 -0.016154 -0.003555
v -0.001155 -0.016154 -0.003555
v -0.003024 -0.016154 -0.002197
v -0.003737 -0.016154 0.000000
v -0.003024 -0.016154 0.002197
v -0.001155 -0.016154 0.003555
v 0.001155 -0.016154 0.003555
v 0.003024 -0.016154 0.002197
v 0.003737 -0.016154 0.000000
v 0.003024 -0.008077 -0.002197
v 0.001155 -0.008077 -0.003555
v -0.001155 -0.008077 -0.003555
v -0.003024 -0.008077 -0.002197
v -0.003737 -0.008077 0.000000
v -0.003024 -0.008077 0.002197
v -0.001155 -0.008077 0.003555
v 0.001155 -0.008077 0.003555
v 0.003024 -0.008077 0.002197
v 0.003737 -0.008077 -0.000000
v 0.003024 0.000000 -0.002197
v 0.001155 0.000000 -0.003555
v -0.001155 0.000000 -0.003555
v -0.003024 0.000000 -0.002197
v -0.003737 0.000000 0.000000
v -0.003024 0.000000 0.002197
v -0.001155 0.000000 0.003555
v 0.001155 0.000000 0.003555
v 0.003024 0.000000 0.002197
v 0.003737 0.000000 0.000000
v 0.003024 0.008077 -0.002197
v 0.001155 0.008077 -0.003555
v -0.001155 0.008077 -0.003555
v -0.003024 0.008077 -0.002197
v -0.003737 0.008077 0.000000
v -0.003024 0.008077 0.002197
v -0.001155 0.008077 0.003555
v 0.001155 0.008077 0.003555
v 0.003024 0.008077 0.002197
v 0.003737 0.008077 0.000000
v 0.000000 -0.016154 0.000000
v 0.002703 -0.014869 -0.001964
v 0.001033 -0.014869 -0.003178
v -0.001033 -0.014869 -0.003178
v -0.002703 -0.014869 -0.001964
v -0.003341 -0.014869 0.000000
v -0.002703 -0.014869 0.001964
v -0.001033 -0.014869 0.003178
v 0.001033 -0.014869 0.003178
v 0.002703 -0.014869 0.001964
v 0.003341 -0.014869 -0.000000
v 0.002811 0.008089 -0.002042
v 0.001074 0.008089 -0.003305
v -0.001074 0.008089 -0.003305
v -0.002811 0.008089 -0.002042
v -0.003475 0.008089 0.000000
v -0.002811 0.008089 0.002042
v -0.001074 0.008089 0.003305
v 0.001074 0.008089 0.003305
v 0.002811 0.008089 0.002042
v 0.003475 0.008089 -0.000000
v 0.002363 -0.005534 -0.001716
v 0.000902 -0.005534 -0.002777
v -0.000000 -0.005405 -0.000000
v -0.000902 -0.005534 -0.002777
v -0.002363 -0.005534 -0.001716
v -0.002920 -0.005534 0.000000
v -0.002363 -0.005534 0.001716
v -0.000902 -0.005534 0.002777
v 0.000902 -0.005534 0.002777
v 0.002363 -0.005534 0.001716
v 0.002920 -0.005534 -0.000000
vt 0.641898 0.073712
vt 0.642583 0.132248
vt 0.458059 0.126480
vt 0.457322 0.064387
vt 0.643068 0.191697
vt 0.458963 0.188581
vt 0.643503 0.251699
vt 0.459709 0.250716
vt 0.643866 0.311968
vt 0.460129 0.312885
vt 0.644140 0.372239
vt 0.460162 0.375082
vt 0.644364 0.432244
vt 0.459848 0.437304
vt 0.644617 0.491688
vt 0.459342 0.499574
vt 0.644883 0.550174
vt 0.459002 0.561964
vt 0.640480 0.016716
vt 0.459610 0.624679
vt 0.239081 0.125349
vt 0.235461 0.062484
vt 0.241767 0.188181
vt 0.243462 0.250916
vt 0.244190 0.313593
vt 0.243964 0.376279
vt 0.242773 0.439041
vt 0.240582 0.501919
vt 0.237366 0.564883
vt 0.231420 0.000000
vt 0.021905 0.137350
vt 0.016553 0.077397
vt 0.025136 0.196637
vt 0.027010 0.255566
vt 0.027754 0.314314
vt 0.027396 0.373012
vt 0.025811 0.431779
vt 0.022641 0.490752
vt 0.016945 0.550083
vt 0.006315 0.016140
vt 0.701041 0.155732
vt 0.681705 0.096259
vt 0.782893 0.096241
vt 0.751642 0.192482
vt 0.814179 0.192470
vt 0.864766 0.155703
vt 0.884081 0.096222
vt 0.864745 0.036749
vt 0.814144 0.000000
vt 0.751607 0.000011
vt 0.701020 0.036779
vt 0.969463 0.271360
vt 0.464734 0.625360
vt 0.922954 0.207371
vt 0.415967 0.628421
vt 0.367138 0.630255
vt 0.318278 0.630861
vt 0.269419 0.630238
vt 0.220591 0.628388
vt 0.171825 0.625310
vt 0.123151 0.621008
vt 0.561961 0.615565
vt 0.492488 0.993454
vt 0.550408 0.988354
vt 0.434459 0.997096
vt 0.376356 0.999279
vt 0.318216 1.000000
vt 0.260077 0.999259
vt 0.201975 0.997057
vt 0.143946 0.993395
vt 0.086028 0.988276
vt 0.608181 0.981800
vt 0.000032 0.020385
vt 0.009971 0.078800
vt 0.010450 0.548515
vt 0.015991 0.489922
vt 0.019121 0.431307
vt 0.020694 0.372774
vt 0.021049 0.314271
vt 0.020306 0.255712
vt 0.018439 0.196998
vt 0.015228 0.138032
vt 0.679364 0.612732
vt 0.678719 0.071540
vt 0.681236 0.551965
vt 0.680996 0.492192
vt 0.680696 0.432382
vt 0.680448 0.372249
vt 0.680170 0.311902
vt 0.679825 0.251553
vt 0.679455 0.191402
vt 0.679137 0.131513
vt 0.000000 0.605584
vt 0.028257 0.981702
vt 0.006155 0.609842
vt 0.644729 0.607060
vt 0.457292 0.002172
vt 0.675602 0.009920
vt 0.233216 0.627748
vt 0.074601 0.615483
vt 0.998192 0.231802
vt 0.513409 0.621074
vt 0.998183 0.182912
vt 0.969439 0.143365
vt 0.922940 0.128266
vt 0.876446 0.143383
vt 0.847716 0.182941
vt 0.847726 0.231830
vt 0.876470 0.271378
vt 0.922969 0.286476
vn 0.807645 -0.058208 -0.586789
vn 0.308493 -0.058207 -0.949444
vn 0.308915 -0.025673 -0.950743
vn 0.808750 -0.025674 -0.587592
vn -0.308493 -0.058208 -0.949444
vn -0.308915 -0.025673 -0.950743
vn -0.807645 -0.058208 -0.586789
vn -0.808750 -0.025673 -0.587591
vn -0.998305 -0.058208 0.000000
vn -0.999670 -0.025673 0.000000
vn -0.807645 -0.058208 0.586789
vn -0.808750 -0.025674 0.587592
vn -0.308493 -0.058208 0.949444
vn -0.308915 -0.025673 0.950743
vn 0.308493 -0.058208 0.949444
vn 0.308915 -0.025673 0.950743
vn 0.807645 -0.058208 0.586789
vn 0.808750 -0.025673 0.587591
vn 0.998305 -0.058208 0.000000
vn 0.999670 -0.025674 0.000000
vn 0.309017 0.000000 -0.951057
vn 0.809017 0.000000 -0.587785
vn -0.309017 0.000000 -0.951056
vn -0.809017 0.000000 -0.587785
vn -1.000000 -0.000000 0.000000
vn -0.809017 -0.000000 0.587785
vn -0.309017 0.000000 0.951057
vn 0.309017 0.000000 0.951057
vn 0.809017 0.000000 0.587785
vn 1.000000 0.000000 0.000000
vn 0.309017 0.000000 -0.951057
vn 0.809017 0.000000 -0.587785
vn -0.309017 0.000000 -0.951056
vn -0.809017 0.000000 -0.587785
vn -1.000000 -0.000000 0.000000
vn -0.809017 -0.000000 0.587785
vn -0.309017 0.000000 0.951057
vn 0.309017 0.000000 0.951056
vn 0.809017 0.000000 0.587785
vn 1.000000 0.000000 0.000000
vn 0.218976 -0.705588 -0.673940
vn 0.573288 -0.705588 -0.416518
vn 0.000000 -1.000000 -0.000000
vn -0.218976 -0.705588 -0.673939
vn -0.573288 -0.705588 -0.416518
vn -0.708622 -0.705588 0.000000
vn -0.573287 -0.705588 0.416518
vn -0.218976 -0.705588 0.673940
vn 0.218977 -0.705588 0.673940
vn 0.573288 -0.705588 0.416518
vn 0.708623 -0.705588 -0.000000
vn 0.295319 0.294436 -0.908897
vn 0.773154 0.294436 -0.561730
vn -0.295319 0.294436 -0.908897
vn -0.773154 0.294436 -0.561729
vn -0.955671 0.294436 0.000000
vn -0.773154 0.294436 0.561730
vn -0.295318 0.294436 0.908897
vn 0.295319 0.294436 0.908897
vn 0.773154 0.294436 0.561729
vn 0.955671 0.294436 -0.000000
vn 0.035702 0.999026 -0.025939
vn 0.013637 0.999026 -0.041970
vn -0.000000 1.000000 -0.000000
vn -0.013637 0.999026 -0.041970
vn -0.035702 0.999026 -0.025939
vn -0.044130 0.999026 0.000000
vn -0.035702 0.999026 0.025939
vn -0.013637 0.999026 0.041970
vn 0.013637 0.999026 0.041970
vn 0.035702 0.999026 0.025939
vn 0.044130 0.999026 -0.000000
vn 0.036669 0.998972 -0.026643
vn 0.014006 0.998972 -0.043108
vn 0.014006 0.998972 -0.043108
vn 0.036669 0.998972 -0.026643
vn -0.014006 0.998972 -0.043108
vn -0.014006 0.998972 -0.043108
vn -0.036670 0.998972 -0.026643
vn -0.036670 0.998972 -0.026643
vn -0.045326 0.998972 0.000000
vn -0.045326 0.998972 0.000000
vn -0.036669 0.998972 0.026643
vn -0.036669 0.998972 0.026643
vn -0.014006 0.998972 0.043108
vn -0.014006 0.998972 0.043108
vn 0.014007 0.998972 0.043108
vn 0.014007 0.998972 0.043108
vn 0.036670 0.998972 0.026642
vn 0.036670 0.998972 0.026642
vn 0.045326 0.998972 -0.000000
vn 0.045326 0.998972 -0.000000
vn -0.587345 0.038691 0.808411
vn -0.587345 0.038691 0.808411
vn -0.587345 0.038691 0.808411
vn -0.587345 0.038691 0.808411
vn 0.000000 0.038691 0.999251
vn 0.000000 0.038691 0.999251
vn 0.000000 0.038691 0.999251
vn 0.000000 0.038691 0.999251
vn 0.587346 0.038691 0.808411
vn 0.587346 0.038691 0.808411
vn 0.587346 0.038691 0.808411
vn 0.587346 0.038691 0.808411
vn 0.950344 0.038691 0.308786
vn 0.950344 0.038691 0.308786
vn 0.950344 0.038691 0.308786
vn 0.950344 0.038691 0.308786
vn 0.950344 0.038691 -0.308786
vn 0.950344 0.038691 -0.308786
vn 0.950344 0.038691 -0.308786
vn 0.950344 0.038691 -0.308786
vn 0.587345 0.038691 -0.808412
vn 0.587345 0.038691 -0.808412
vn 0.587345 0.038691 -0.808412
vn 0.587345 0.038691 -0.808412
vn -0.000001 0.038691 -0.999251
vn -0.000001 0.038691 -0.999251
vn -0.000001 0.038691 -0.999251
vn -0.000001 0.038691 -0.999251
vn -0.587345 0.038691 -0.808411
vn -0.587345 0.038691 -0.808411
vn -0.587345 0.038691 -0.808411
vn -0.587345 0.038691 -0.808411
vn -0.950344 0.038691 -0.308786
vn -0.950344 0.038691 -0.308786
vn -0.950344 0.038691 -0.308786
vn -0.950344 0.038691 -0.308786
vn -0.950344 0.038691 0.308786
vn -0.950344 0.038691 0.308786
vn -0.950344 0.038691 0.308786
vn -0.950344 0.038691 0.308786
s 1
g p_Pistol_BulletCase
usemtl initialShadingGroup
f 42/1/1 43/2/2 12/3/3 11/4/4
f 43/2/2 44/5/5 13/6/6 12/3/3
f 44/5/5 45/7/7 14/8/8 13/6/6
f 45/7/7 46/9/9 15/10/10 14/8/8
f 46/9/9 47/11/11 16/12/12 15/10/10
f 47/11/11 48/13/13 17/14/14 16/12/12
f 48/13/13 49/15/15 18/16/16 17/14/14
f 49/15/15 50/17/17 19/18/18 18/16/16
f 50/17/17 51/96/19 20/20/20 19/18/18
f 51/19/19 42/1/1 11/4/4 20/97/20
f 11/4/4 12/3/3 22/21/21 21/22/22
f 12/3/3 13/6/6 23/23/23 22/21/21
f 13/6/6 14/8/8 24/24/24 23/23/23
f 14/8/8 15/10/10 25/25/25 24/24/24
f 15/10/10 16/12/12 26/26/26 25/25/25
f 16/12/12 17/14/14 27/27/27 26/26/26
f 17/14/14 18/16/16 28/28/28 27/27/27
f 18/16/16 19/18/18 29/29/29 28/28/28
f 19/18/18 20/20/20 30/99/30 29/29/29
f 20/97/20 11/4/4 21/22/22 30/30/30
f 21/22/22 22/21/21 32/31/31 31/32/32
f 22/21/21 23/23/23 33/33/33 32/31/31
f 23/23/23 24/24/24 34/34/34 33/33/33
f 24/24/24 25/25/25 35/35/35 34/34/34
f 25/25/25 26/26/26 36/36/36 35/35/35
f 26/26/26 27/27/27 37/37/37 36/36/36
f 27/27/27 28/28/28 38/38/38 37/37/37
f 28/28/28 29/29/29 39/39/39 38/38/38
f 29/29/29 30/99/30 40/95/40 39/39/39
f 30/30/30 21/22/22 31/32/32 40/40/40
s 2
f 2/41/41 1/42/42 41/43/43
f 3/44/44 2/41/41 41/43/43
f 4/45/45 3/44/44 41/43/43
f 5/46/46 4/45/45 41/43/43
f 6/47/47 5/46/46 41/43/43
f 7/48/48 6/47/47 41/43/43
f 8/49/49 7/48/48 41/43/43
f 9/50/50 8/49/49 41/43/43
f 10/51/51 9/50/50 41/43/43
f 1/42/42 10/51/51 41/43/43
f 1/84/42 2/92/41 43/2/52 42/1/53
f 2/92/41 3/91/44 44/5/54 43/2/52
f 3/91/44 4/90/45 45/7/55 44/5/54
f 4/90/45 5/89/46 46/9/56 45/7/55
f 5/89/46 6/88/47 47/11/57 46/9/56
f 6/88/47 7/87/48 48/13/58 47/11/57
f 7/87/48 8/86/49 49/15/59 48/13/58
f 8/86/49 9/85/50 50/17/60 49/15/59
f 9/85/50 10/83/51 51/96/61 50/17/60
f 10/98/51 1/84/42 42/1/53 51/19/61
s 3
f 62/52/62 63/110/63 64/54/64
f 63/110/63 65/109/65 64/54/64
f 65/109/65 66/108/66 64/54/64
f 66/108/66 67/107/67 64/54/64
f 67/107/67 68/106/68 64/54/64
f 68/106/68 69/105/69 64/54/64
f 69/105/69 70/104/70 64/54/64
f 70/104/70 71/103/71 64/54/64
f 71/103/71 72/101/72 64/54/64
f 72/101/72 62/52/62 64/54/64
s 4
f 31/32/73 32/31/74 53/82/75 52/74/76
f 32/31/74 33/33/77 54/81/78 53/82/75
f 33/33/77 34/34/79 55/80/80 54/81/78
f 34/34/79 35/35/81 56/79/82 55/80/80
f 35/35/81 36/36/83 57/78/84 56/79/82
f 36/36/83 37/37/85 58/77/86 57/78/84
f 37/37/85 38/38/87 59/76/88 58/77/86
f 38/38/87 39/39/89 60/75/90 59/76/88
f 39/39/89 40/95/91 61/93/92 60/75/90
f 40/40/91 31/32/73 52/74/76 61/73/92
s off
f 52/64/93 53/63/94 63/53/95 62/102/96
f 53/63/97 54/65/98 65/55/99 63/53/100
f 54/65/101 55/66/102 66/56/103 65/55/104
f 55/66/105 56/67/106 67/57/107 66/56/108
f 56/67/109 57/68/110 68/58/111 67/57/112
f 57/68/113 58/69/114 69/59/115 68/58/116
f 58/69/117 59/70/118 70/60/119 69/59/120
f 59/70/121 60/71/122 71/61/123 70/60/124
f 60/71/125 61/94/126 72/100/127 71/61/128
f 61/72/129 52/64/130 62/102/131 72/62/132
