# This file uses centimeters as units for non-parametric coordinates.

mtllib Interactable_Box.mtl
g default
v -0.262504 -0.075000 0.112504
v -0.262504 -0.037504 0.150000
v -0.300000 -0.037504 0.112504
v 0.300000 -0.037504 0.112504
v 0.262504 -0.037504 0.150000
v 0.262504 -0.075000 0.112504
v -0.300000 0.037504 0.112504
v -0.262504 0.037504 0.150000
v -0.262504 0.075000 0.112504
v 0.262504 0.075000 0.112504
v 0.262504 0.037504 0.150000
v 0.300000 0.037504 0.112504
v -0.300000 0.037504 -0.112504
v -0.262504 0.075000 -0.112504
v -0.262504 0.037504 -0.150000
v 0.262504 0.037504 -0.150000
v 0.262504 0.075000 -0.112504
v 0.300000 0.037504 -0.112504
v -0.300000 -0.037504 -0.112504
v -0.262504 -0.037504 -0.150000
v -0.262504 -0.075000 -0.112504
v 0.262504 -0.075000 -0.112504
v 0.262504 -0.037504 -0.150000
v 0.300000 -0.037504 -0.112504
vt 0.217427 0.000014
vt 0.478290 0.000035
vt 0.217423 0.043485
vt 0.130480 0.043478
vt 0.043523 0.000000
vt 0.217371 0.695627
vt 0.217375 0.652155
vt 0.478235 0.695648
vt 0.130428 0.695620
vt 1.000000 0.000076
vt 0.739137 0.000055
vt 0.043520 0.043471
vt 0.043471 0.652142
vt 0.000000 0.652138
vt 0.999945 0.695689
vt 0.652193 0.000048
vt 0.565233 0.000041
vt 0.739133 0.043527
vt 0.739085 0.652197
vt 0.652138 0.695661
vt 0.565178 0.695655
vt 0.565230 0.043513
vt 0.565181 0.652183
vt 0.478238 0.652176
vt 0.130432 0.652149
vt 0.999997 0.043547
vt 0.999948 0.652218
vt 0.652190 0.043520
vt 0.652142 0.652190
vt 0.478287 0.043506
vt 0.089459 0.958535
vt 0.089479 0.695617
vt 0.177125 0.695624
vt 0.177104 0.958542
vt 0.000000 0.958528
vt 0.000021 0.695610
vt 0.087666 0.695617
vt 0.087645 0.958535
vt 0.130484 0.000007
vt 0.000048 0.043468
vt 0.043468 0.695613
vt 0.739081 0.695668
vn -0.707107 -0.707107 0.000000
vn -0.707107 -0.707107 0.000000
vn -0.707107 -0.707107 0.000000
vn -0.707107 -0.707107 0.000000
vn 0.000000 -0.707107 0.707107
vn 0.000000 -0.707107 0.707107
vn 0.000000 -0.707107 0.707107
vn 0.000000 -0.707107 0.707107
vn -0.707107 0.000000 0.707107
vn -0.707107 0.000000 0.707107
vn -0.707107 0.000000 0.707107
vn -0.707107 0.000000 0.707107
vn 0.707107 -0.707107 0.000000
vn 0.707107 -0.707107 0.000000
vn 0.707107 -0.707107 0.000000
vn 0.707107 -0.707107 0.000000
vn 0.707107 0.000000 0.707107
vn 0.707107 0.000000 0.707107
vn 0.707107 0.000000 0.707107
vn 0.707107 0.000000 0.707107
vn -0.707107 0.707107 0.000000
vn -0.707107 0.707107 0.000000
vn -0.707107 0.707107 0.000000
vn -0.707107 0.707107 0.000000
vn 0.000000 0.707107 0.707107
vn 0.000000 0.707107 0.707107
vn 0.000000 0.707107 0.707107
vn 0.000000 0.707107 0.707107
vn 0.707107 0.707107 0.000000
vn 0.707107 0.707107 0.000000
vn 0.707107 0.707107 0.000000
vn 0.707107 0.707107 0.000000
vn -0.707107 0.000000 -0.707107
vn -0.707107 0.000000 -0.707107
vn -0.707107 0.000000 -0.707107
vn -0.707107 0.000000 -0.707107
vn 0.000000 0.707107 -0.707107
vn 0.000000 0.707107 -0.707107
vn 0.000000 0.707107 -0.707107
vn 0.000000 0.707107 -0.707107
vn 0.707107 0.000000 -0.707107
vn 0.707107 0.000000 -0.707107
vn 0.707107 0.000000 -0.707107
vn 0.707107 0.000000 -0.707107
vn 0.000000 -0.707107 -0.707107
vn 0.000000 -0.707107 -0.707107
vn 0.000000 -0.707107 -0.707107
vn 0.000000 -0.707107 -0.707107
vn 0.000000 0.000000 1.000000
vn 0.000000 0.000000 1.000000
vn 0.000000 0.000000 1.000000
vn 0.000000 0.000000 1.000000
vn 0.000000 1.000000 0.000000
vn 0.000000 1.000000 0.000000
vn 0.000000 1.000000 0.000000
vn 0.000000 1.000000 0.000000
vn 0.000000 0.000000 -1.000000
vn 0.000000 0.000000 -1.000000
vn 0.000000 0.000000 -1.000000
vn 0.000000 0.000000 -1.000000
vn 0.000000 -1.000000 0.000000
vn 0.000000 -1.000000 0.000000
vn 0.000000 -1.000000 0.000000
vn 0.000000 -1.000000 0.000000
vn 1.000000 0.000000 0.000000
vn 1.000000 0.000000 0.000000
vn 1.000000 0.000000 0.000000
vn 1.000000 0.000000 0.000000
vn -1.000000 0.000000 0.000000
vn -1.000000 0.000000 0.000000
vn -1.000000 0.000000 0.000000
vn -1.000000 0.000000 0.000000
vn -0.577350 -0.577351 0.577350
vn -0.577350 -0.577351 0.577350
vn -0.577350 -0.577351 0.577350
vn 0.577350 -0.577351 0.577350
vn 0.577350 -0.577351 0.577350
vn 0.577350 -0.577351 0.577350
vn -0.577350 0.577351 0.577350
vn -0.577350 0.577351 0.577350
vn -0.577350 0.577351 0.577350
vn 0.577350 0.577351 0.577350
vn 0.577350 0.577351 0.577350
vn 0.577350 0.577351 0.577350
vn -0.577350 0.577351 -0.577350
vn -0.577350 0.577351 -0.577350
vn -0.577350 0.577351 -0.577350
vn 0.577350 0.577351 -0.577350
vn 0.577350 0.577351 -0.577350
vn 0.577350 0.577351 -0.577350
vn -0.577350 -0.577351 -0.577350
vn -0.577350 -0.577351 -0.577350
vn -0.577350 -0.577351 -0.577350
vn 0.577350 -0.577351 -0.577350
vn 0.577350 -0.577351 -0.577350
vn 0.577350 -0.577351 -0.577350
s off
g p_AmmoBox
usemtl initialShadingGroup
f 1/3/1 3/1/2 19/2/3 21/30/4
f 2/4/5 1/3/6 6/7/7 5/25/8
f 3/39/9 2/4/10 8/12/11 7/5/12
f 4/6/13 6/7/14 22/24/15 24/8/16
f 5/25/17 4/9/18 12/41/19 11/13/20
f 7/10/21 9/26/22 14/18/23 13/11/24
f 9/40/25 8/12/26 11/13/27 10/14/28
f 10/27/29 12/15/30 18/42/31 17/19/32
f 13/16/33 15/28/34 20/22/35 19/17/36
f 15/28/37 14/18/38 17/19/39 16/29/40
f 16/29/41 18/20/42 24/21/43 23/23/44
f 21/30/45 20/22/46 23/23/47 22/24/48
f 2/4/49 5/25/50 11/13/51 8/12/52
f 9/26/53 10/27/54 17/19/55 14/18/56
f 15/28/57 16/29/58 23/23/59 20/22/60
f 21/30/61 22/24/62 6/7/63 1/3/64
f 4/31/65 24/32/66 18/33/67 12/34/68
f 19/35/69 3/36/70 7/37/71 13/38/72
f 1/3/73 2/4/74 3/39/75
f 4/9/76 5/25/77 6/7/78
f 7/5/79 8/12/80 9/40/81
f 10/14/82 11/13/83 12/41/84
f 13/11/85 14/18/86 15/28/87
f 16/29/88 17/19/89 18/42/90
f 19/17/91 20/22/92 21/30/93
f 22/24/94 23/23/95 24/21/96
