# This file uses centimeters as units for non-parametric coordinates.

mtllib Wall_Window_1x2.mtl
g default
v 0.000000 0.000000 0.050000
v 1.000000 0.000000 0.050000
v 0.000000 2.000000 0.050000
v 1.000000 2.000000 0.050000
v 0.000000 2.000000 -0.050000
v 1.000000 2.000000 -0.050000
v 0.000000 0.000000 -0.050000
v 1.000000 0.000000 -0.050000
v 0.000000 1.000000 0.050000
v 1.000000 1.000000 0.050000
v 1.000000 1.000000 -0.050000
v 0.000000 1.000000 -0.050000
v 0.167448 0.000000 0.050000
v 0.167448 0.000000 -0.050000
v 0.167448 1.000000 -0.050000
v 0.167448 2.000000 -0.050000
v 0.167448 2.000000 0.050000
v 0.167448 1.000000 0.050000
v 0.832552 0.000000 0.050000
v 0.832552 0.000000 -0.050000
v 0.832552 1.000000 -0.050000
v 0.832552 2.000000 -0.050000
v 0.832552 2.000000 0.050000
v 0.832552 1.000000 0.050000
v 0.000000 1.500000 -0.050000
v 0.167448 1.500000 -0.050000
v 0.832552 1.500000 -0.050000
v 1.000000 1.500000 -0.050000
v 1.000000 1.500000 0.050000
v 0.832552 1.500000 0.050000
v 0.167448 1.500000 0.050000
v 0.000000 1.500000 0.050000
v 0.000000 0.500000 0.050000
v 0.167448 0.500000 0.050000
v 0.832552 0.500000 0.050000
v 1.000000 0.500000 0.050000
v 1.000000 0.500000 -0.050000
v 0.832552 0.500000 -0.050000
v 0.167448 0.500000 -0.050000
v 0.000000 0.500000 -0.050000
vt 0.099954 0.000038
vt 0.999950 0.100088
vt 0.999983 1.000321
vt 0.100037 0.999955
vt 0.100037 0.999955
vt 0.999918 1.000383
vt 0.099954 0.000037
vt 0.000050 -0.000088
vt 0.000017 0.000629
vt -0.000037 0.000046
vt 0.999961 0.099976
vt 0.000091 1.000392
vt 0.000043 0.100016
vt 0.000045 0.999963
vt 0.999845 0.000491
vt 0.999968 0.000096
vt 0.099955 0.000037
vt 0.000046 0.999963
vt 0.000155 1.000457
vt 0.100037 0.999955
vt 0.000046 0.999962
vt 0.999983 1.000319
vt 0.999909 0.000556
vt -0.000037 0.000045
vt 0.000000 1.000302
vt 0.099954 0.000037
vt 0.000082 0.000565
vt 0.999847 0.000491
vt 0.000017 0.000627
vt 0.100037 0.999954
vt 0.999828 1.000474
vt -0.000037 0.000045
vt 0.999957 -0.000016
vt 0.000046 0.999963
vt 0.000039 0.000024
vt 0.000153 1.000457
vt 1.000000 0.000646
vt -0.000037 0.000045
vt 0.000171 0.000474
vt 0.000032 0.099904
vt 0.167591 0.000503
vt 0.167466 0.099935
vt 0.167484 -0.000057
vt 0.832426 0.000514
vt 0.266686 0.497061
vt 0.832499 1.000384
vt 0.167477 0.100009
vt 0.167473 0.000017
vt 0.167572 1.000434
vt 0.266710 0.994596
vt 0.832580 0.000617
vt 0.832515 0.100057
vt 0.832534 0.000065
vt 0.167436 0.000606
vt 0.167501 0.000563
vt 0.167204 0.994601
vt 0.167511 1.000391
vt 0.832526 0.099983
vt 0.832522 -0.000009
vt 0.832563 1.000344
vt 0.167179 0.497066
vt 0.832409 1.000445
vt 0.000004 0.500004
vt 0.999914 0.500469
vt 0.166979 0.500512
vt 0.167154 -0.000468
vt 0.000086 0.500479
vt 0.099996 0.499996
vt 0.999915 0.500406
vt 0.000004 0.500004
vt 0.833021 0.500512
vt 0.266661 -0.000473
vt 0.099996 0.499996
vt 0.000085 0.500542
vt 0.099996 0.499996
vt 0.000086 0.500389
vt 0.833021 0.601012
vt 0.167207 0.994601
vt 0.999914 0.500560
vt 0.000004 0.500004
vt 0.000086 0.500543
vt 0.099996 0.499996
vt 0.166979 0.601012
vt 0.167179 0.497067
vt 0.000004 0.500004
vt 0.999914 0.500405
vt 0.832564 1.000342
vt 0.167436 0.000604
vt 0.167505 0.500520
vt 0.832495 0.500428
vt 0.167505 0.500417
vt 0.832494 0.500531
vt 0.832490 0.000557
vt 0.266686 0.497061
vt 0.167575 1.000434
vt 0.266714 0.994596
vt 0.832495 0.500429
vt 0.167504 0.500519
vt 0.832494 0.500471
vt 0.167506 0.500477
vt 0.167419 1.000331
vt 0.167150 -0.000468
vt 0.832427 0.000514
vt 0.266657 -0.000474
vt 0.166980 0.399888
vt 0.833020 0.399888
vt 0.833020 0.500388
vt 0.166980 0.500388
vn 0.000000 0.000000 1.000000
vn 0.000000 0.000000 1.000000
vn -0.000000 -0.000000 1.000000
vn -0.000000 -0.000000 1.000000
vn 0.000000 1.000000 0.000000
vn 0.000000 1.000000 0.000000
vn 0.000000 1.000000 0.000000
vn 0.000000 1.000000 0.000000
vn 0.000000 0.000000 -1.000000
vn -0.000000 -0.000000 -1.000000
vn -0.000000 0.000000 -1.000000
vn 0.000000 0.000000 -1.000000
vn 0.000000 -1.000000 0.000000
vn 0.000000 -1.000000 0.000000
vn 0.000000 -1.000000 0.000000
vn 0.000000 -1.000000 0.000000
vn 1.000000 0.000000 0.000000
vn 1.000000 0.000000 0.000000
vn 1.000000 0.000000 0.000000
vn 1.000000 0.000000 0.000000
vn -1.000000 0.000000 0.000000
vn -1.000000 0.000000 0.000000
vn -1.000000 0.000000 0.000000
vn -1.000000 0.000000 0.000000
vn -0.000000 0.000000 1.000000
vn -0.000001 -0.000000 1.000000
vn 1.000000 0.000000 0.000000
vn 1.000000 0.000000 0.000000
vn 0.000001 -0.000000 -1.000000
vn 0.000000 -0.000000 -1.000000
vn -1.000000 0.000000 0.000000
vn -1.000000 0.000000 0.000000
vn 0.000000 -1.000000 0.000000
vn 0.000000 -1.000000 0.000000
vn 0.000000 -1.000000 0.000000
vn 0.000000 -1.000000 0.000000
vn -0.000000 0.000000 -1.000000
vn -0.000000 0.000000 -1.000000
vn -0.000000 -0.000000 -1.000000
vn -0.000001 -0.000000 -1.000000
vn 0.000000 0.000000 -1.000000
vn 0.000000 -0.000000 -1.000000
vn 0.000000 1.000000 0.000000
vn 0.000000 1.000000 0.000000
vn 0.000000 1.000000 0.000000
vn 0.000000 1.000000 0.000000
vn 0.000000 -0.000000 1.000000
vn 0.000000 -0.000000 1.000000
vn -0.000000 0.000000 1.000000
vn -0.000000 0.000000 1.000000
vn 0.000001 -0.000000 1.000000
vn 0.000000 0.000000 1.000000
vn 0.000000 -0.000000 -1.000000
vn 0.000000 -0.000000 -1.000000
vn -0.000000 -0.000000 -1.000000
vn -0.000000 -0.000000 -1.000000
vn 1.000000 0.000000 0.000000
vn 1.000000 0.000000 0.000000
vn 0.000000 0.000000 1.000000
vn 0.000000 0.000000 1.000000
vn -0.000000 0.000000 1.000000
vn -0.000000 0.000000 1.000000
vn -1.000000 0.000000 0.000000
vn -1.000000 0.000000 0.000000
vn 0.000001 0.000000 1.000000
vn 0.000000 0.000000 1.000000
vn -0.000000 0.000000 1.000000
vn -0.000001 0.000000 1.000000
vn 1.000000 0.000000 0.000000
vn 1.000000 0.000000 0.000000
vn 0.000000 -0.000000 -1.000000
vn 0.000001 -0.000000 -1.000000
vn -0.000000 -0.000000 -1.000000
vn -0.000001 -0.000000 -1.000000
vn -1.000000 0.000000 0.000000
vn -1.000000 0.000000 0.000000
vn 1.000000 0.000000 0.000000
vn 1.000000 0.000000 0.000000
vn 1.000000 0.000000 0.000000
vn 1.000000 0.000000 0.000000
vn 1.000000 0.000000 0.000000
vn 1.000000 0.000000 0.000000
vn 1.000000 0.000000 0.000000
vn 1.000000 0.000000 0.000000
vn -1.000000 0.000000 0.000000
vn -1.000000 0.000000 0.000000
vn -1.000000 0.000000 0.000000
vn -1.000000 0.000000 0.000000
vn -1.000000 -0.000000 0.000000
vn -1.000000 -0.000000 0.000000
vn -1.000000 -0.000000 0.000000
vn -1.000000 -0.000000 0.000000
vn 0.000000 1.000000 0.000000
vn 0.000000 1.000000 0.000000
vn 0.000000 1.000000 0.000000
vn 0.000000 1.000000 0.000000
vn 0.000000 -1.000000 0.000000
vn 0.000000 -1.000000 0.000000
vn 0.000000 -1.000000 0.000000
vn 0.000000 -1.000000 0.000000
s 1
g p_Wall_Window_1x2
usemtl initialShadingGroup
f 29/69/1 30/97/2 24/103/3 10/28/4
s 2
f 22/58/5 23/59/6 4/33/7 6/11/8
s 3
f 21/55/9 27/100/10 28/67/11 11/27/12
s 4
f 19/52/13 20/53/14 8/16/15 2/2/16
s 5
f 10/32/17 11/26/18 28/68/19 29/70/20
s 6
f 12/24/21 9/17/22 32/73/23 25/63/24
s 1
f 24/62/3 35/92/25 36/79/26 10/31/4
s 5
f 36/80/27 37/82/28 11/20/18 10/18/17
s 3
f 37/81/29 38/89/30 21/95/9 11/19/12
s 6
f 40/85/31 33/75/32 9/30/22 12/21/21
s 4
f 7/8/33 14/43/34 13/42/35 1/40/36
s 3
f 12/22/37 15/87/38 39/90/39 40/86/40
f 25/64/41 26/99/42 15/93/38 12/23/37
s 2
f 3/35/43 17/48/44 16/47/45 5/13/46
s 1
f 9/29/47 18/88/48 31/98/49 32/74/50
f 33/76/51 34/91/52 18/101/48 9/25/47
s 4
f 13/42/35 14/43/34 20/53/14 19/52/13
s 2
f 16/47/45 17/48/44 23/59/6 22/58/5
s 3
f 5/6/53 16/46/54 26/99/42 25/64/41
f 27/100/10 26/99/42 16/46/54 22/57/55
f 28/67/11 27/100/10 22/57/55 6/12/56
s 5
f 29/70/20 28/68/19 6/5/57 4/34/58
s 1
f 23/60/59 30/97/2 29/69/1 4/3/60
f 17/49/61 31/98/49 30/97/2 23/60/59
f 32/74/50 31/98/49 17/49/61 3/36/62
s 6
f 25/63/24 32/73/23 3/4/63 5/14/64
s 1
f 1/39/65 13/41/66 34/91/52 33/76/51
f 35/92/25 34/91/52 13/41/66 19/51/67
f 36/79/26 35/92/25 19/51/67 2/37/68
s 5
f 2/38/69 8/7/70 37/82/28 36/80/27
s 3
f 20/54/71 38/89/30 37/81/29 8/9/72
f 14/44/73 39/90/39 38/89/30 20/54/71
f 40/86/40 39/90/39 14/44/73 7/15/74
s 6
f 7/10/75 1/1/76 33/75/32 40/85/31
s off
f 15/45/77 26/50/78 31/56/79 18/61/80
f 18/61/81 34/66/82 39/72/83 15/45/84
f 27/78/85 21/84/86 24/94/87 30/96/88
f 21/84/89 38/102/90 35/104/91 24/94/92
f 34/65/93 35/71/94 38/77/95 39/83/96
f 26/105/97 27/106/98 30/107/99 31/108/100
