# This file uses centimeters as units for non-parametric coordinates.

mtllib Wall_1x2.mtl
g default
v 0.000000 0.000000 0.050000
v 1.000000 0.000000 0.050000
v 0.000000 2.000000 0.050000
v 1.000000 2.000000 0.050000
v 0.000000 2.000000 -0.050000
v 1.000000 2.000000 -0.050000
v 0.000000 0.000000 -0.050000
v 1.000000 0.000000 -0.050000
v 0.000000 1.000000 0.050000
v 1.000000 1.000000 0.050000
v 1.000000 1.000000 -0.050000
v 0.000000 1.000000 -0.050000
vt 0.999962 0.999954
vt 0.900046 0.999962
vt 0.000083 1.000000
vt 0.000046 1.000037
vt 0.000046 1.000037
vt 0.999917 0.000000
vt 0.999963 0.999955
vt 0.999955 0.000037
vt 0.000083 1.000000
vt 0.999954 0.899963
vt 0.900046 0.999963
vt 1.000000 0.999917
vt 0.899963 0.000045
vt 0.000038 0.900045
vt -0.000000 0.000083
vt 1.000037 0.999954
vt 0.999962 0.999955
vt 0.000037 0.900046
vt 1.000000 0.999917
vt 0.000046 1.000037
vt 0.000038 0.900046
vt 0.999917 0.000000
vt -0.000000 0.000083
vt 0.999954 0.899963
vt 0.000000 0.000083
vt 0.999962 0.999955
vt 0.000083 1.000000
vt 1.000000 0.999917
vt 0.999917 0.000000
vt 0.000046 1.000037
vt 0.000083 1.000000
vt 0.999954 0.899963
vt 1.000037 0.999955
vt 0.000038 0.900046
vt 0.999954 0.000037
vt -0.000000 0.000083
vt 1.000000 0.999917
vt 0.999954 0.899963
vt 0.999917 0.000000
vt 0.899963 0.000046
vn 0.000000 0.000000 1.000000
vn 0.000000 0.000000 1.000000
vn 0.000000 0.000000 1.000000
vn 0.000000 0.000000 1.000000
vn 0.000000 1.000000 0.000000
vn 0.000000 1.000000 0.000000
vn 0.000000 1.000000 0.000000
vn 0.000000 1.000000 0.000000
vn 0.000000 0.000000 -1.000000
vn 0.000000 0.000000 -1.000000
vn 0.000000 0.000000 -1.000000
vn 0.000000 0.000000 -1.000000
vn 0.000000 -1.000000 0.000000
vn 0.000000 -1.000000 0.000000
vn 0.000000 -1.000000 0.000000
vn 0.000000 -1.000000 0.000000
vn 1.000000 0.000000 0.000000
vn 1.000000 0.000000 0.000000
vn 1.000000 0.000000 0.000000
vn 1.000000 0.000000 0.000000
vn -1.000000 0.000000 0.000000
vn -1.000000 0.000000 0.000000
vn -1.000000 0.000000 0.000000
vn -1.000000 0.000000 0.000000
vn 0.000000 0.000000 1.000000
vn 0.000000 0.000000 1.000000
vn 1.000000 0.000000 0.000000
vn 1.000000 0.000000 0.000000
vn 0.000000 0.000000 -1.000000
vn 0.000000 0.000000 -1.000000
vn -1.000000 0.000000 0.000000
vn -1.000000 0.000000 0.000000
s 1
g p_Wall_1x2
usemtl initialShadingGroup
f 9/29/1 10/28/2 4/3/3 3/36/4
s off
f 3/35/5 4/33/6 6/11/7 5/13/8
s 2
f 5/6/9 6/12/10 11/27/11 12/23/12
s off
f 7/8/13 8/16/14 2/2/15 1/40/16
s 3
f 10/32/17 11/26/18 6/5/19 4/34/20
s 4
f 12/24/21 9/17/22 3/4/23 5/14/24
s 1
f 1/39/25 2/37/26 10/31/2 9/25/1
s 3
f 2/38/27 8/7/28 11/20/18 10/18/17
s 2
f 12/22/12 11/19/11 8/9/29 7/15/30
s 4
f 7/10/31 1/1/32 9/30/22 12/21/21
